<?xml version="1.0" encoding="UTF-8"?> <svg xmlns="http://www.w3.org/2000/svg" width="444" height="104" viewBox="0 0 444 104" fill="none"> <path d="M193.688 102.995C193.688 82.2188 210.696 65.3779 231.678 65.3779C231.678 86.1543 214.67 102.995 193.688 102.995Z" fill="#192140"></path> <path d="M0 101.565V28.8008H16.7932V40.9263H17.5571C18.8939 36.7308 21.1974 33.4927 24.4439 31.2118C27.7261 28.9072 31.4739 27.749 35.6871 27.749C36.6419 27.749 37.7161 27.7963 38.8977 27.8908C40.1152 27.9499 41.1177 28.0681 41.9174 28.2218V43.999C41.1894 43.7508 40.0197 43.5263 38.4203 43.3372C36.8568 43.1127 35.341 43.0063 33.8729 43.0063C30.71 43.0063 27.8813 43.6799 25.3629 45.039C22.8803 46.3627 20.911 48.2181 19.4787 50.5817C18.0465 52.9454 17.3303 55.6872 17.3303 58.7717V101.554H0V101.565Z" fill="#192140"></path> <path d="M110.366 64.6218C110.366 58.24 109.471 52.7446 107.681 48.1355C105.903 43.4909 103.444 39.6737 100.317 36.6718C97.2255 33.67 93.6568 31.46 89.5987 30.0418C85.5764 28.5882 81.3035 27.8555 76.78 27.8555C69.7619 27.8555 63.651 29.4509 58.459 32.6418C53.2552 35.7973 49.209 40.2291 46.3087 45.9136C43.4323 51.5627 42 58.1336 42 65.6146C42 73.2255 43.4323 79.8436 46.3087 85.4691C49.1732 91.0591 53.2671 95.3846 58.6023 98.4455C63.9613 101.471 70.3229 102.995 77.6871 102.995C83.3923 102.995 88.4648 102.145 92.9048 100.431C97.3329 98.6936 100.973 96.2591 103.814 93.1391C106.678 89.9836 108.624 86.2846 109.65 82.0536L93.4777 80.2573C92.7139 82.3018 91.58 84.0273 90.0761 85.4218C88.5842 86.8046 86.8058 87.8682 84.7648 88.5891C82.7239 89.2864 80.4442 89.6291 77.9258 89.6291C74.1661 89.6291 70.8839 88.8491 68.0671 87.2655C65.2623 85.6582 63.0781 83.3536 61.5145 80.3518C59.9987 77.4209 59.2348 73.9346 59.1871 69.8809H110.366V64.6218ZM59.211 58.3227C59.3661 55.4746 60.1061 52.8273 61.419 50.4046C62.9229 47.6627 65.0116 45.4527 67.6852 43.7746C70.3706 42.0727 73.4739 41.2218 77.0187 41.2218C80.3368 41.2218 83.2371 41.9546 85.7197 43.4436C88.25 44.9327 90.2074 46.9655 91.6158 49.5536C93.0123 52.1182 93.7284 55.0373 93.7642 58.3227H59.211Z" fill="#192140"></path> <path d="M140.071 23.0691V28.8009H155.289V42.0727H140.071V101.565H122.705V42.0727H111.844V28.8009H122.705V21.9345C122.705 17.0418 123.731 12.9645 125.772 9.71455C127.849 6.46455 130.618 4.03 134.091 2.42273C137.577 0.803636 141.432 0 145.669 0C148.677 0 151.338 0.236364 153.666 0.709091C155.993 1.19364 157.712 1.61909 158.834 1.99727L155.384 15.2573C154.656 15.0327 153.725 14.82 152.615 14.5955C151.493 14.3473 150.252 14.2173 148.88 14.2173C145.657 14.2173 143.377 14.9855 142.041 16.5336C140.728 18.0582 140.071 20.2327 140.071 23.0691Z" fill="#192140"></path> <path d="M270.741 102.995C263.401 102.995 257.111 101.4 251.847 98.209C246.619 95.0181 242.585 90.6099 239.744 84.9963C236.94 79.3472 235.531 72.8354 235.531 65.4726C235.531 58.0863 236.964 51.5626 239.84 45.9135C242.704 40.229 246.763 35.809 251.99 32.6535C257.254 29.4626 263.472 27.8672 270.645 27.8672C276.613 27.8672 281.889 28.9545 286.484 31.1408C291.103 33.2917 294.791 36.3408 297.536 40.2881C300.281 44.1999 301.845 48.7854 302.227 54.0208H285.672C285.004 50.5108 283.404 47.5917 280.886 45.2517C278.404 42.8881 275.062 41.6945 270.884 41.6945C267.339 41.6945 264.236 42.6399 261.551 44.5426C258.877 46.4099 256.788 49.0926 255.284 52.5908C253.816 56.1008 253.088 60.2963 253.088 65.189C253.088 70.1526 253.816 74.4072 255.284 77.9763C256.753 81.5099 258.805 84.2399 261.455 86.1663C264.129 88.0572 267.28 89.0026 270.884 89.0026C273.438 89.0026 275.718 88.5299 277.723 87.5844C279.764 86.6035 281.471 85.1972 282.844 83.3654C284.216 81.5335 285.159 79.3117 285.672 76.6881H302.227C301.809 81.8408 300.281 86.4026 297.632 90.3735C294.982 94.3208 291.377 97.4172 286.818 99.6626C282.259 101.884 276.9 102.995 270.741 102.995Z" fill="#192140"></path> <path d="M355.616 70.968V28.8008H372.934V101.565H356.141V88.6362H355.377C353.718 92.7135 350.997 96.0462 347.202 98.6344C343.442 101.223 338.799 102.523 333.285 102.523C328.475 102.523 324.214 101.459 320.514 99.3435C316.85 97.1926 313.973 94.0844 311.896 90.0071C309.82 85.9062 308.781 80.9426 308.781 75.128V28.8008H326.1V72.4808C326.1 77.0899 327.377 80.7535 329.931 83.4717C332.485 86.1899 335.827 87.549 339.981 87.549C342.535 87.549 345.005 86.9344 347.393 85.7053C349.78 84.4762 351.749 82.6444 353.277 80.2099C354.828 77.7399 355.616 74.6671 355.616 70.968Z" fill="#192140"></path> <path d="M441.267 48.0409L425.476 49.7427C425.034 48.1591 424.247 46.6818 423.137 45.2873C422.05 43.8927 420.582 42.7818 418.732 41.9191C416.882 41.0682 414.615 40.6427 411.941 40.6427C408.337 40.6427 405.305 41.4109 402.846 42.9591C400.423 44.5073 399.23 46.5164 399.254 48.9746C399.218 51.09 400.006 52.8155 401.593 54.1391C403.216 55.4627 405.902 56.55 409.626 57.4127L422.158 60.06C429.116 61.5491 434.272 63.9009 437.662 67.1155C441.076 70.3418 442.794 74.5491 442.83 79.7609C442.794 84.3346 441.446 88.3882 438.76 91.8864C436.11 95.3609 432.434 98.0791 427.708 100.029C422.993 101.991 417.563 102.972 411.44 102.972C402.44 102.972 395.208 101.105 389.717 97.3818C384.227 93.6237 380.957 88.4 379.906 81.6991L396.795 80.0918C397.559 83.3773 399.182 85.8591 401.677 87.5255C404.159 89.2037 407.406 90.0309 411.392 90.0309C415.51 90.0309 418.804 89.1918 421.298 87.5255C423.817 85.8473 425.082 83.7791 425.082 81.3209C425.082 79.2409 424.27 77.5155 422.647 76.1564C421.048 74.7973 418.565 73.7573 415.188 73.0246L402.655 70.4246C395.601 68.9709 390.398 66.5246 387.008 63.0855C383.63 59.6109 381.947 55.2264 381.983 49.92C381.947 45.4409 383.177 41.5527 385.671 38.2673C388.189 34.9464 391.687 32.3937 396.15 30.5973C400.65 28.7655 405.83 27.8555 411.702 27.8555C420.308 27.8555 427.087 29.6755 432.04 33.3037C437.006 36.9437 440.085 41.8482 441.267 48.0409Z" fill="#192140"></path> <path d="M231.678 65.378C210.696 65.378 193.688 48.5371 193.688 27.7607C214.67 27.7607 231.678 44.6016 231.678 65.378Z" fill="#192140"></path> <path d="M193.772 27.7607C193.772 48.5371 176.764 65.378 155.781 65.378C155.781 44.6016 172.789 27.7607 193.772 27.7607Z" fill="#192140"></path> <path d="M155.781 65.3779C176.764 65.3779 193.772 82.2188 193.772 102.995C172.789 102.995 155.781 86.1543 155.781 65.3779Z" fill="#192140"></path> </svg> 